<?xml version="1.0" encoding="UTF-8" standalone="no"?>
<!-- Created with Inkscape (http://www.inkscape.org/) -->

<svg
   width="31.631523mm"
   height="6.0393372mm"
   viewBox="0 0 31.631523 6.0393372"
   version="1.1"
   id="svg5"
   xml:space="preserve"
   inkscape:version="1.2.2 (b0a8486, 2022-12-01)"
   sodipodi:docname="ogabassey.svg"
   xmlns:inkscape="http://www.inkscape.org/namespaces/inkscape"
   xmlns:sodipodi="http://sodipodi.sourceforge.net/DTD/sodipodi-0.dtd"
   xmlns="http://www.w3.org/2000/svg"
   xmlns:svg="http://www.w3.org/2000/svg"><sodipodi:namedview
     id="namedview7"
     pagecolor="#ffffff"
     bordercolor="#000000"
     borderopacity="0.25"
     inkscape:showpageshadow="2"
     inkscape:pageopacity="0.0"
     inkscape:pagecheckerboard="0"
     inkscape:deskcolor="#d1d1d1"
     inkscape:document-units="mm"
     showgrid="false"
     inkscape:zoom="2.0490955"
     inkscape:cx="-210.09269"
     inkscape:cy="763.75161"
     inkscape:window-width="1440"
     inkscape:window-height="744"
     inkscape:window-x="0"
     inkscape:window-y="25"
     inkscape:window-maximized="1"
     inkscape:current-layer="layer1" /><defs
     id="defs2" /><g
     inkscape:label="Layer 1"
     inkscape:groupmode="layer"
     id="layer1"
     transform="translate(82.113443,-215.02329)"><text
       xml:space="preserve"
       style="font-style:normal;font-variant:normal;font-weight:800;font-stretch:normal;font-size:5.47419px;font-family:Poppins;-inkscape-font-specification:'Poppins, Ultra-Bold';font-variant-ligatures:normal;font-variant-caps:normal;font-variant-numeric:normal;font-variant-east-asian:normal;letter-spacing:-0.264583px;opacity:1;fill:#ffffff;fill-opacity:1;stroke-width:0.862075;stroke-linecap:round;stroke-linejoin:round;stroke-opacity:0.4"
       x="-76.723335"
       y="219.55176"
       id="text4504"
       inkscape:export-filename="../sam/ogabassey-dashboard/public/images/svg/logo_white.svg"
       inkscape:export-xdpi="96"
       inkscape:export-ydpi="96"><tspan
         sodipodi:role="line"
         id="tspan4502"
         style="font-style:normal;font-variant:normal;font-weight:800;font-stretch:normal;font-size:5.47419px;font-family:Poppins;-inkscape-font-specification:'Poppins, Ultra-Bold';font-variant-ligatures:normal;font-variant-caps:normal;font-variant-numeric:normal;font-variant-east-asian:normal;fill:#ffffff;fill-opacity:1;stroke-width:0.862076"
         x="-76.723335"
         y="219.55176">ga<tspan
   style="fill:#ffffff"
   id="tspan4500">bassey </tspan></tspan></text><path
       id="path4506"
       style="opacity:1;fill:#ffffff;fill-opacity:1;stroke-width:0.386363;stroke-linecap:round;stroke-linejoin:round;stroke-opacity:0.4"
       d="m -79.439193,215.0233 a 2.6742582,2.6742582 0 0 0 -2.674256,2.67425 2.6742582,2.6742582 0 0 0 2.674256,2.67426 2.6742582,2.6742582 0 0 0 2.674255,-2.67426 2.6742582,2.6742582 0 0 0 -2.674255,-2.67425 z m -0.975134,1.68775 h 1.949751 c 0.185265,0 0.334347,0.14908 0.334347,0.33435 0,0.18526 -0.149082,0.33434 -0.334347,0.33434 h -1.949751 c -0.185265,0 -0.334347,-0.14908 -0.334347,-0.33434 0,-0.18527 0.149082,-0.33435 0.334347,-0.33435 z m 0,1.30483 h 1.949751 c 0.185265,0 0.334347,0.14908 0.334347,0.33435 0,0.18526 -0.149082,0.33434 -0.334347,0.33434 h -1.949751 c -0.185265,0 -0.334347,-0.14908 -0.334347,-0.33434 0,-0.18527 0.149082,-0.33435 0.334347,-0.33435 z"
       inkscape:export-filename="../sam/ogabassey-dashboard/public/images/svg/logo_white.svg"
       inkscape:export-xdpi="96"
       inkscape:export-ydpi="96" /></g></svg>
